<svg width="56" height="16" viewBox="0 0 56 16" fill="none" xmlns="http://www.w3.org/2000/svg">
<g clip-path="url(#clip0)">
<path fill-rule="evenodd" clip-rule="evenodd" d="M47.2929 14.2929C46.9024 14.6834 46.9024 15.3166 47.2929 15.7071C47.6834 16.0976 48.3166 16.0976 48.7071 15.7071L55.7071 8.70711C56.0976 8.31658 56.0976 7.68342 55.7071 7.29289L48.7071 0.292893C48.3166 -0.0976321 47.6834 -0.0976322 47.2929 0.292893C46.9024 0.683417 46.9024 1.31658 47.2929 1.70711L52.5858 7L1 7C0.447717 7 7.47665e-07 7.44771 6.99382e-07 8C6.511e-07 8.55228 0.447716 9 1 9L52.5858 9L47.2929 14.2929Z" fill="white"/>
</g>
<defs>
<clipPath id="clip0">
<rect width="56" height="16" fill="white" transform="translate(56 16) rotate(-180)"/>
</clipPath>
</defs>
</svg>
