<svg width="96" height="96" viewBox="0 0 96 96" fill="none" xmlns="http://www.w3.org/2000/svg">
<path d="M17.7645 55.5345C16.1113 56.5151 15 58.3174 15 60.375C15 63.4766 17.5234 66 20.625 66C23.0693 66 25.1535 64.4323 25.9275 62.25H40.5C43.6016 62.25 46.125 64.7734 46.125 67.875C46.125 70.9766 43.6016 73.5 40.5 73.5H18C12.8306 73.5 8.625 77.7056 8.625 82.875C8.625 88.0444 12.8306 92.25 18 92.25H36.75C37.7856 92.25 38.625 91.4106 38.625 90.375C38.625 89.3394 37.7856 88.5 36.75 88.5H18C14.8984 88.5 12.375 85.9766 12.375 82.875C12.375 79.7734 14.8984 77.25 18 77.25H40.5C45.6694 77.25 49.875 73.0444 49.875 67.875C49.875 62.7056 45.6694 58.5 40.5 58.5H25.9275C25.4841 57.2497 24.6107 56.2018 23.4855 55.5345L37.8064 32.0378C40.0592 28.6515 41.25 24.7057 41.25 20.625C41.25 9.25237 31.9976 0 20.625 0C9.25237 0 0 9.25237 0 20.625C0 24.7057 1.19081 28.6515 3.44362 32.0378L17.7645 55.5345ZM20.625 62.25C19.5911 62.25 18.75 61.4089 18.75 60.375C18.75 59.3411 19.5911 58.5 20.625 58.5C21.6589 58.5 22.5 59.3411 22.5 60.375C22.5 61.4089 21.6589 62.25 20.625 62.25ZM20.625 3.75C29.9299 3.75 37.5 11.3201 37.5 20.625C37.5 23.9753 36.5199 27.2128 34.6659 29.9878C34.6515 30.0094 34.6374 30.0313 34.6239 30.0536L20.625 53.0222C20.625 53.0222 6.5985 30.0094 6.58406 29.9878C4.73006 27.2128 3.75 23.9753 3.75 20.625C3.75 11.3201 11.3201 3.75 20.625 3.75Z" fill="#BE935A"/>
<path d="M20.625 30C25.7944 30 30 25.7944 30 20.625C30 15.4556 25.7944 11.25 20.625 11.25C15.4556 11.25 11.25 15.4556 11.25 20.625C11.25 25.7944 15.4556 30 20.625 30ZM20.625 15C23.7266 15 26.25 17.5234 26.25 20.625C26.25 23.7266 23.7266 26.25 20.625 26.25C17.5234 26.25 15 23.7266 15 20.625C15 17.5234 17.5234 15 20.625 15Z" fill="#BE935A"/>
<path d="M75.375 31.125C64.0024 31.125 54.75 40.3774 54.75 51.75C54.75 55.8373 55.9446 59.7891 58.2045 63.1789L72.4719 85.5589C71.3672 86.2273 70.5105 87.2653 70.0727 88.5H53.625C52.5894 88.5 51.75 89.3394 51.75 90.375C51.75 91.4106 52.5894 92.25 53.625 92.25H70.0725C70.8465 94.4323 72.9306 96 75.375 96C78.4766 96 81 93.4766 81 90.375C81 88.3348 79.9082 86.5451 78.2783 85.5589L92.5457 63.1789C94.8054 59.7891 96 55.8373 96 51.75C96 40.3774 86.7476 31.125 75.375 31.125ZM75.375 92.25C74.3411 92.25 73.5 91.4089 73.5 90.375C73.5 89.3411 74.3411 88.5 75.375 88.5C76.4089 88.5 77.25 89.3411 77.25 90.375C77.25 91.4089 76.4089 92.25 75.375 92.25ZM89.4159 61.1128C89.4086 61.1241 75.375 83.1369 75.375 83.1369C75.375 83.1369 61.3414 61.1239 61.3341 61.1128C59.4801 58.3378 58.5 55.1003 58.5 51.75C58.5 42.4451 66.0701 34.875 75.375 34.875C84.6799 34.875 92.25 42.4451 92.25 51.75C92.25 55.1003 91.2699 58.3378 89.4159 61.1128Z" fill="#BE935A"/>
<path d="M75.375 42.375C70.2056 42.375 66 46.5806 66 51.75C66 56.9194 70.2056 61.125 75.375 61.125C80.5444 61.125 84.75 56.9194 84.75 51.75C84.75 46.5806 80.5444 42.375 75.375 42.375ZM75.375 57.375C72.2734 57.375 69.75 54.8516 69.75 51.75C69.75 48.6484 72.2734 46.125 75.375 46.125C78.4766 46.125 81 48.6484 81 51.75C81 54.8516 78.4766 57.375 75.375 57.375Z" fill="#BE935A"/>
<path d="M45.1875 92.25C46.223 92.25 47.0625 91.4105 47.0625 90.375C47.0625 89.3395 46.223 88.5 45.1875 88.5C44.152 88.5 43.3125 89.3395 43.3125 90.375C43.3125 91.4105 44.152 92.25 45.1875 92.25Z" fill="#BE935A"/>
</svg>
