<svg width="32" height="32" viewBox="0 0 32 32" fill="none" xmlns="http://www.w3.org/2000/svg">
<mask id="mask0" mask-type="alpha" maskUnits="userSpaceOnUse" x="0" y="0" width="32" height="32">
<path fill-rule="evenodd" clip-rule="evenodd" d="M0 16C0 7.16344 7.16344 0 16 0C24.8366 0 32 7.16344 32 16C32 24.8366 24.8366 32 16 32C7.16344 32 0 24.8366 0 16Z" fill="white"/>
</mask>
<g mask="url(#mask0)">
<path fill-rule="evenodd" clip-rule="evenodd" d="M16.0008 7.46655C13.6833 7.46655 13.3924 7.47669 12.4822 7.51811C11.5737 7.55971 10.9536 7.70353 10.4111 7.91456C9.84981 8.13252 9.37372 8.42407 8.8994 8.89857C8.42473 9.37288 8.13317 9.84898 7.9145 10.4101C7.70294 10.9528 7.55894 11.5731 7.51805 12.4812C7.47734 13.3914 7.46667 13.6824 7.46667 16C7.46667 18.3175 7.47699 18.6075 7.51823 19.5177C7.56001 20.4262 7.70383 21.0462 7.91468 21.5888C8.13282 22.1501 8.42437 22.6262 8.89887 23.1005C9.37301 23.5752 9.8491 23.8674 10.41 24.0854C10.9529 24.2964 11.5732 24.4402 12.4815 24.4818C13.3917 24.5233 13.6824 24.5334 15.9997 24.5334C18.3175 24.5334 18.6074 24.5233 19.5176 24.4818C20.4261 24.4402 21.0469 24.2964 21.5898 24.0854C22.1509 23.8674 22.6263 23.5752 23.1004 23.1005C23.5751 22.6262 23.8667 22.1501 24.0853 21.589C24.2951 21.0463 24.4391 20.426 24.4818 19.5179C24.5227 18.6076 24.5333 18.3175 24.5333 16C24.5333 13.6824 24.5227 13.3916 24.4818 12.4814C24.4391 11.5729 24.2951 10.9528 24.0853 10.4102C23.8667 9.84898 23.5751 9.37288 23.1004 8.89857C22.6258 8.4239 22.1511 8.13234 21.5893 7.91456C21.0453 7.70353 20.4249 7.55971 19.5164 7.51811C18.6062 7.47669 18.3164 7.46655 15.9981 7.46655H16.0008ZM15.7162 9.00435H15.7163L16.0008 9.00444C18.2792 9.00444 18.5492 9.01262 19.449 9.0535C20.281 9.09155 20.7325 9.23057 21.0333 9.34737C21.4316 9.50204 21.7155 9.68693 22.014 9.9856C22.3127 10.2843 22.4975 10.5687 22.6526 10.9669C22.7694 11.2674 22.9086 11.719 22.9464 12.551C22.9873 13.4505 22.9962 13.7208 22.9962 15.9981C22.9962 18.2755 22.9873 18.5457 22.9464 19.4453C22.9084 20.2773 22.7694 20.7288 22.6526 21.0293C22.4979 21.4275 22.3127 21.7111 22.014 22.0096C21.7153 22.3082 21.4318 22.4931 21.0333 22.6478C20.7329 22.7651 20.281 22.9038 19.449 22.9418C18.5494 22.9827 18.2792 22.9916 16.0008 22.9916C13.7222 22.9916 13.4521 22.9827 12.5525 22.9418C11.7205 22.9034 11.269 22.7644 10.968 22.6476C10.5698 22.4929 10.2853 22.308 9.98665 22.0094C9.68798 21.7107 9.50309 21.427 9.34807 21.0286C9.23127 20.7281 9.09206 20.2766 9.0542 19.4445C9.01331 18.545 9.00513 18.2748 9.00513 15.996C9.00513 13.7172 9.01331 13.4484 9.0542 12.5488C9.09224 11.7168 9.23127 11.2653 9.34807 10.9645C9.50274 10.5662 9.68798 10.2818 9.98665 9.98311C10.2853 9.68444 10.5698 9.49955 10.968 9.34453C11.2688 9.2272 11.7205 9.08853 12.5525 9.0503C13.3398 9.01475 13.6448 9.00408 15.2352 9.0023V9.00444C15.3838 9.0042 15.5437 9.00428 15.7162 9.00435ZM19.5319 11.4449C19.5319 10.8794 19.9906 10.4212 20.5559 10.4212V10.4209C21.1213 10.4209 21.5799 10.8795 21.5799 11.4449C21.5799 12.0102 21.1213 12.4689 20.5559 12.4689C19.9906 12.4689 19.5319 12.0102 19.5319 11.4449ZM16.0007 11.6177C13.5806 11.6178 11.6186 13.58 11.6186 16C11.6186 18.4201 13.5807 20.3814 16.0009 20.3814C18.421 20.3814 20.3824 18.4201 20.3824 16C20.3824 13.5799 18.4208 11.6177 16.0007 11.6177ZM18.8453 16C18.8453 14.4289 17.5717 13.1555 16.0008 13.1555C14.4298 13.1555 13.1563 14.4289 13.1563 16C13.1563 17.5708 14.4298 18.8444 16.0008 18.8444C17.5717 18.8444 18.8453 17.5708 18.8453 16Z" fill="#2A2A2A"/>
</g>
</svg>
