<svg width="96" height="96" viewBox="0 0 96 96" fill="none" xmlns="http://www.w3.org/2000/svg">
<g clip-path="url(#clip0)">
<path d="M15.2728 17.4545H28.3638C29.5698 17.4545 30.5456 16.4786 30.5456 15.2726C30.5456 14.0666 29.5695 13.0909 28.3638 13.0909H15.2728C14.0668 13.0909 13.0909 14.0668 13.0909 15.2728C13.0909 16.4788 14.0668 17.4545 15.2728 17.4545Z" fill="#BE935A"/>
<path d="M28.3638 21.8182H15.2728C14.0668 21.8182 13.0909 22.7941 13.0909 24.0001C13.0909 25.2059 14.0668 26.1818 15.2728 26.1818H28.3638C29.5698 26.1818 30.5456 25.2059 30.5456 23.9999C30.5454 22.7939 29.5695 21.8182 28.3638 21.8182Z" fill="#BE935A"/>
<path d="M54.5455 17.4545H67.6364C68.8424 17.4545 69.8183 16.4786 69.8183 15.2726C69.8183 14.0666 68.8424 13.0909 67.6364 13.0909H54.5455C53.3395 13.0909 52.3636 14.0668 52.3636 15.2728C52.3636 16.4788 53.3395 17.4545 54.5455 17.4545Z" fill="#BE935A"/>
<path d="M69.8182 23.9999C69.8182 22.7939 68.8423 21.818 67.6363 21.818H54.5454C53.3394 21.818 52.3635 22.7939 52.3635 23.9999C52.3635 25.2059 53.3394 26.1818 54.5454 26.1818H67.6363C68.8425 26.1818 69.8182 25.2059 69.8182 23.9999Z" fill="#BE935A"/>
<path d="M32.7273 34.9092C31.5213 34.9092 30.5454 35.8851 30.5454 37.0911V45.8182C30.5454 47.0242 31.5213 48.0001 32.7273 48.0001C33.9333 48.0001 34.9092 47.0242 34.9092 45.8182V37.0909C34.9092 35.8849 33.9333 34.9092 32.7273 34.9092Z" fill="#BE935A"/>
<path d="M69.8181 45.8182C69.8181 47.0242 70.794 48 72 48C73.206 48 74.1819 47.0242 74.1819 45.8182V37.0908C74.1819 35.8848 73.206 34.9089 72 34.9089C70.794 34.9089 69.8181 35.8848 69.8181 37.0908V45.8182Z" fill="#BE935A"/>
<path d="M82.9091 69.8182C85.319 69.8182 87.2727 67.8646 87.2727 65.4546C87.2727 63.0447 85.319 61.0911 82.9091 61.0911C80.4992 61.0911 78.5455 63.0447 78.5455 65.4546C78.5455 67.8646 80.4992 69.8182 82.9091 69.8182Z" fill="#BE935A"/>
<path d="M82.9091 52.5842V8.72735C82.9091 3.91398 78.9931 0 74.182 0H48.0001C45.3817 0 43.0558 1.1833 41.4547 3.01623C39.8535 1.1833 37.5274 0 34.9092 0H8.72735C3.91623 0 0 3.91398 0 8.72735V69.8184C0 74.6315 3.91623 78.5455 8.72735 78.5455H34.9092C37.5276 78.5455 39.8535 77.3622 41.4547 75.5293C43.0558 77.3622 45.3817 78.5455 48.0001 78.5455H60.1876L53.0029 85.7302C52.5938 86.1393 52.3637 86.6932 52.3637 87.2729V93.8183C52.3637 95.0243 53.3396 96.0002 54.5456 96.0002H61.091C61.6705 96.0002 62.2246 95.7701 62.6337 95.361L75.8909 82.106C77.4635 82.6387 79.0827 82.9093 80.7276 82.9093C89.1482 82.9093 96.0004 76.057 96.0004 67.6365C96 59.963 90.291 53.6544 82.9091 52.5842ZM39.2728 69.8182C39.2728 72.2236 37.3167 74.1817 34.9092 74.1817H8.72735C6.31964 74.1817 4.36378 72.2236 4.36378 69.8182V8.72735C4.36378 6.32189 6.31985 4.36378 8.72735 4.36378H34.9092C37.3169 4.36378 39.2728 6.32189 39.2728 8.72735V69.8182ZM48.0001 74.1819C45.5924 74.1819 43.6365 72.2238 43.6365 69.8184V8.72735C43.6365 6.32189 45.5926 4.36378 48.0001 4.36378H74.182C76.5897 4.36378 78.5455 6.32189 78.5455 8.72735V52.5842C71.1637 53.6544 65.4546 59.963 65.4546 67.6365C65.4546 69.2792 65.7232 70.9006 66.2601 72.4732L64.5513 74.1819H48.0001ZM80.7274 78.5455C79.2019 78.5455 77.6975 78.2152 76.2573 77.5633C75.4178 77.1841 74.4546 77.3694 73.8154 78.0086L60.1876 91.6364H56.7273V88.1761L70.3551 74.5483C70.9986 73.907 71.1733 72.9354 70.8027 72.1087C70.1506 70.664 69.8182 69.1577 69.8182 67.6363C69.8182 61.6214 74.7103 56.7272 80.7272 56.7272C86.7443 56.7272 91.6363 61.6214 91.6363 67.6363C91.6363 73.6511 86.7443 78.5455 80.7274 78.5455Z" fill="#BE935A"/>
</g>
<defs>
<clipPath id="clip0">
<rect width="96" height="96" fill="white"/>
</clipPath>
</defs>
</svg>
