<svg width="75" height="96" viewBox="0 0 75 96" fill="none" xmlns="http://www.w3.org/2000/svg">
<g clip-path="url(#clip0)">
<path d="M60.8087 96.0005C45.1584 96.0005 29.5266 96.0005 13.8764 96.0005C13.2297 95.5505 12.6754 95.063 12.6015 94.1818C12.5091 93.0943 12.3613 92.0068 12.2319 90.9193C11.2896 82.238 10.3472 73.5568 9.38641 64.8568C8.22235 54.2818 7.05828 43.7068 5.89421 33.1318C5.74639 31.7255 5.56162 30.3005 5.37685 28.8568C4.1943 28.8568 3.12262 28.8755 2.05094 28.8568C0.757527 28.838 0.0184356 28.1255 0.0184356 26.8318C-4.16824e-05 23.5505 -4.16824e-05 20.2693 0.0184356 16.988C0.0184356 15.7505 0.757527 15.0193 1.97703 14.9818C2.99328 14.963 4.00953 14.9255 5.02578 14.9818C5.67248 15.0193 5.91269 14.7755 6.13441 14.1755C7.55716 10.0505 8.99839 5.94426 10.5135 1.85676C10.7722 1.14426 11.4004 0.581763 11.8624 -0.0369873C28.9169 -0.0369873 45.9899 -0.0369873 63.0444 -0.0369873C63.5064 0.600513 64.1346 1.16301 64.3933 1.85676C65.9084 5.94426 67.3496 10.0505 68.7724 14.1755C68.9756 14.7755 69.2343 15.0193 69.881 14.963C70.731 14.9068 71.5994 14.9443 72.4678 14.9443C74.0384 14.963 74.6851 15.638 74.7036 17.2505C74.7036 20.3443 74.7036 23.438 74.7036 26.5318C74.7036 28.1443 74.0384 28.8193 72.4678 28.838C71.4331 28.838 70.3984 28.838 69.3452 28.838C69.2897 29.138 69.2158 29.3443 69.1974 29.5693C68.6985 34.1255 68.1811 38.6818 67.7007 43.2568C66.7584 51.938 65.816 60.6193 64.8552 69.3193C63.9683 77.4193 63.0444 85.5005 62.176 93.6005C62.0282 94.6693 61.6956 95.4755 60.8087 96.0005ZM14.985 82.0693C29.9516 82.0693 44.8074 82.0693 59.6816 82.0693C61.2706 67.7068 62.8412 53.4193 64.4117 39.0568C46.3225 39.0568 28.3256 39.0568 10.2548 39.0568C11.8254 53.4193 13.4145 67.7068 14.985 82.0693ZM65.5389 28.8755C65.1508 28.8755 64.8552 28.8755 64.5411 28.8755C61.4923 28.8755 58.4436 28.8755 55.3948 28.8755C52.2537 28.8755 49.1126 28.8755 45.9714 28.8568C44.4932 28.8568 43.6063 27.713 43.9944 26.4005C44.253 25.5568 44.9552 25.1068 46.1192 25.1068C54.0275 25.1068 61.9543 25.1068 69.8625 25.1068C70.2136 25.1068 70.5647 25.1068 70.9342 25.1068C70.9342 22.913 70.9342 20.8693 70.9342 18.788C48.5213 18.788 26.1453 18.788 3.7878 18.788C3.7878 20.9255 3.7878 22.988 3.7878 25.1068C4.23125 25.1068 4.58232 25.1068 4.95187 25.1068C12.6199 25.1068 20.288 25.1068 27.9561 25.1068C28.3811 25.1068 28.8245 25.088 29.2495 25.1255C30.2657 25.2193 30.9494 26.0068 30.9494 27.0005C30.9494 27.9943 30.2473 28.763 29.231 28.8568C28.9539 28.8755 28.6767 28.8755 28.3995 28.8755C22.339 28.8755 16.26 28.8755 10.1994 28.8755C9.86682 28.8755 9.55271 28.8755 9.14621 28.8755C9.38641 31.0693 9.60814 33.1318 9.84835 35.213C28.2332 35.213 46.5073 35.213 64.8552 35.213C65.0769 33.113 65.2987 31.0318 65.5389 28.8755ZM65.0954 14.9818C63.7466 11.1755 62.4532 7.48176 61.1228 3.75051C57.2241 3.75051 53.3439 3.73176 49.4636 3.76926C49.2234 3.76926 48.8908 4.08801 48.78 4.33176C47.8376 6.15051 46.9138 7.98801 46.0453 9.84427C45.5649 10.838 44.8628 11.2505 43.7726 11.2505C39.5229 11.213 35.2731 11.2318 31.0233 11.2505C29.9701 11.2505 29.2864 10.838 28.8245 9.88177C27.9376 8.02551 27.0322 6.18801 26.0899 4.36926C25.9605 4.10676 25.591 3.78801 25.3323 3.76926C21.489 3.73176 17.6273 3.75051 13.7286 3.75051C12.4167 7.50051 11.0863 11.1943 9.75596 14.9818C28.2332 14.9818 46.5812 14.9818 65.0954 14.9818ZM59.2566 85.9318C44.5856 85.9318 30.0255 85.9318 15.4285 85.9318C15.6687 88.0693 15.8904 90.1318 16.1121 92.1943C30.3212 92.1943 44.4378 92.1943 58.5729 92.1943C58.7947 90.0943 59.0164 88.0505 59.2566 85.9318ZM29.9701 3.76926C30.5614 4.98801 31.0603 6.07551 31.6331 7.14426C31.7439 7.35051 32.1319 7.48176 32.3906 7.48176C35.7535 7.50051 39.0979 7.50051 42.4607 7.48176C42.7009 7.48176 43.0705 7.38801 43.1629 7.21926C43.7542 6.11301 44.29 4.96926 44.8813 3.76926C39.8554 3.76926 34.9959 3.76926 29.9701 3.76926Z" fill="#BE935A"/>
<path d="M49.3528 58.2376C49.2604 61.5563 47.9855 65.1751 45.0291 68.0626C40.5761 72.3938 34.0906 72.3188 29.6745 67.9313C24.2976 62.5688 24.0389 53.0626 29.1202 47.4188C34.2384 41.7375 42.3499 42.3375 46.729 48.7313C48.5398 51.3563 49.3713 54.2813 49.3528 58.2376ZM33.333 66.1688C33.2776 64.9313 33.1113 63.7501 33.1852 62.5688C33.333 60.0001 34.4416 57.8626 36.16 55.9876C38.2664 53.7001 38.599 50.6063 37.1208 48.0376C36.7882 47.4376 36.3448 47.1938 35.7905 47.4751C34.571 48.1126 33.2221 48.6375 32.2613 49.5751C28.1039 53.5688 28.1778 61.2751 32.2983 65.3063C32.6309 65.6251 33.0004 65.8876 33.333 66.1688ZM41.5184 48.6188C41.5739 49.875 41.7402 51.0376 41.6663 52.1813C41.5184 54.7501 40.4283 56.9063 38.7099 58.7626C36.5665 61.0876 36.2339 64.2188 37.7675 66.8063C38.0632 67.2938 38.3588 67.5001 38.9501 67.3501C40.3359 66.9938 41.5554 66.3563 42.5347 65.3251C45.4541 62.2876 46.2117 58.6313 45.3432 54.6001C44.8074 52.1438 43.5694 50.1 41.5184 48.6188Z" fill="#BE935A"/>
<path d="M37.4349 28.875C36.4372 28.875 35.6242 28.0688 35.5872 27.0376C35.5687 25.9688 36.4187 25.1063 37.4534 25.1251C38.4512 25.1438 39.2457 25.9688 39.2457 27.0001C39.2457 28.05 38.4512 28.8563 37.4349 28.875Z" fill="#BE935A"/>
</g>
<defs>
<clipPath id="clip0">
<rect width="74.6667" height="96" fill="white"/>
</clipPath>
</defs>
</svg>
