<svg width="78" height="96" viewBox="0 0 78 96" fill="none" xmlns="http://www.w3.org/2000/svg">
<g clip-path="url(#clip0)">
<path d="M20.2587 95.9998C19.6076 95.7368 18.9193 95.549 18.3054 95.1921C15.9429 93.8398 14.7338 91.7361 14.9012 88.9937C15.0686 86.289 16.5382 84.4295 18.9751 83.3025C19.403 83.1146 19.8308 82.7202 20.0541 82.307C21.1702 80.2596 22.8258 79.1514 25.1325 79.1139C27.5695 79.0763 30.025 79.1139 32.4619 79.1139C32.7595 79.1139 33.0572 79.1139 33.4106 79.1139C33.4106 73.6856 33.4106 68.3512 33.4106 62.998C31.2155 62.7539 29.0204 62.6224 26.8626 62.2279C23.1793 61.5705 19.5146 60.8568 15.8685 59.9928C12.8735 59.279 11.1249 56.7245 11.1621 53.6253C11.1621 53.2309 11.0133 52.7613 10.7715 52.4795C9.80413 51.3338 9.26466 50.0565 9.28326 48.5539C9.28326 45.7177 9.28326 42.8626 9.28326 40.0264C9.28326 39.6883 9.28326 39.3502 9.28326 38.8431C7.85088 38.8431 6.4929 38.9182 5.15352 38.8243C1.22841 38.5426 -1.1527 34.2976 0.633131 30.7664C1.48884 29.0759 2.86542 27.8362 4.72567 27.7611C8.66938 27.6108 12.6317 27.7235 16.7056 27.7235C16.7056 27.5357 16.7056 27.1976 16.7056 26.8783C16.7056 21.2246 16.7056 15.5709 16.7056 9.91724C16.687 3.96302 20.6121 -0.000196914 26.5277 -0.000196914C35.0104 -0.000196914 43.4931 -0.0189799 51.9758 -0.000196914C56.6637 0.0185861 60.4214 3.23048 61.2213 7.8511C61.3515 8.62121 61.3329 9.41009 61.3329 10.1802C61.3329 15.8339 61.3329 21.4876 61.3329 27.1413C61.3329 27.3479 61.3329 27.5733 61.3329 27.6108C64.9603 27.6108 68.532 27.5733 72.1223 27.6108C75.6381 27.6484 78.1123 30.1278 78.0192 33.4524C77.9262 36.2322 75.7498 38.5801 72.9966 38.8055C71.9549 38.8806 70.8945 38.8431 69.8342 38.8619C69.4993 38.8619 69.1645 38.8994 68.7552 38.9182C68.7552 39.9888 68.7552 40.9843 68.7552 41.9798C68.7552 44.1587 68.7552 46.3563 68.7552 48.5351C68.7552 50.0378 68.2344 51.3338 67.267 52.4608C67.0438 52.7237 66.8764 53.1557 66.8764 53.5126C66.895 56.7996 65.0906 59.2602 61.8909 60.0867C56.6079 61.4766 51.2504 62.397 45.8184 62.7914C45.4278 62.829 45.0371 62.8853 44.6279 62.9229C44.6279 68.3136 44.6279 73.648 44.6279 79.0575C47.0834 79.0575 49.4831 79.1139 51.8828 79.0387C54.7662 78.9448 56.9613 79.884 58.1519 82.7014C58.2263 82.8893 58.4867 83.0583 58.6913 83.1522C61.7235 84.467 63.2861 86.7961 63.1373 89.8014C62.9885 92.6752 61.0724 94.8916 57.9844 95.7932C57.91 95.812 57.8356 95.8871 57.7612 95.9434C57.0171 95.9434 56.273 95.9434 55.5289 95.9434C55.4545 95.8871 55.3801 95.812 55.3057 95.7932C52.6641 95.1358 51.0271 93.4829 50.283 90.8345C50.2272 90.6091 49.7808 90.3461 49.5017 90.3461C42.4886 90.3273 35.4755 90.3273 28.4624 90.3085C27.9229 90.3085 27.7369 90.4776 27.6067 91.0035C27.309 92.3559 26.6393 93.558 25.5232 94.3281C24.5745 94.9855 23.4769 95.3987 22.4352 95.9247C21.7469 95.9998 21.0028 95.9998 20.2587 95.9998ZM20.4447 48.2346C21.5051 48.4788 22.5468 48.7605 23.6071 48.9483C25.9882 49.3616 28.3694 49.7184 30.7505 50.0941C31.8666 50.2632 32.5921 51.1084 32.4991 52.1415C32.4061 53.1745 31.5504 53.8695 30.4156 53.8319C30.1738 53.8319 29.9134 53.7944 29.6715 53.7568C25.8208 53.0243 21.9515 52.3105 18.1008 51.5404C16.5754 51.2399 15.2918 51.9536 14.9384 53.3624C14.585 54.6959 15.4035 56.0671 16.8172 56.4428C22.5654 58.0018 28.4252 58.9033 34.3779 59.2602C40.0145 59.5983 45.651 59.3541 51.2131 58.4713C54.543 57.9454 57.8356 57.1941 61.1096 56.4428C62.9513 56.0108 63.6954 54.0573 62.7281 52.5735C62.0398 51.5216 61.0166 51.2962 59.4168 51.6155C55.5661 52.3856 51.7154 53.1182 47.8461 53.7944C46.5439 54.0198 45.5952 53.2684 45.5022 52.1227C45.4092 51.0333 46.1905 50.2819 47.4369 50.0753C50.5435 49.5494 53.6501 48.9671 56.7567 48.4412C57.4078 48.3285 57.6124 48.0843 57.6124 47.4081C57.5938 34.8235 57.6124 22.2201 57.5938 9.63549C57.5938 6.12307 55.2313 3.77519 51.7526 3.77519C43.2699 3.77519 34.7872 3.77519 26.3231 3.77519C25.8952 3.77519 25.4488 3.77519 25.0209 3.85032C22.2492 4.35746 20.4075 6.57386 20.3889 9.46644C20.3703 22.145 20.3889 34.8423 20.3889 47.5208C20.4075 47.7274 20.4261 47.9341 20.4447 48.2346ZM54.0407 83.171C53.6129 83.0771 53.185 82.8893 52.7571 82.8893C43.5675 82.8705 34.3779 82.8705 25.1883 82.8893C24.7791 82.8893 24.3698 83.0959 24.1838 83.1522C25.1883 84.2416 26.1185 85.2935 27.0858 86.3078C27.2532 86.4768 27.5323 86.6271 27.7741 86.6271C35.2523 86.6459 42.749 86.6459 50.2272 86.6271C50.4504 86.6271 50.7853 86.5707 50.8783 86.4205C51.6038 85.0493 52.6827 84.0726 54.0407 83.171ZM37.2241 63.1859C37.2241 68.5202 37.2241 73.7983 37.2241 79.0575C38.4705 79.0575 39.661 79.0575 40.8144 79.0575C40.8144 73.7231 40.8144 68.4639 40.8144 63.1859C39.568 63.1859 38.4147 63.1859 37.2241 63.1859ZM67.7507 35.1428C69.2389 35.1428 70.7271 35.1616 72.1967 35.1428C73.4803 35.124 74.2988 34.3727 74.2802 33.2645C74.2616 32.1939 73.4803 31.4426 72.2339 31.4238C69.2947 31.3862 66.3555 31.3862 63.4163 31.405C62.1328 31.4238 61.3143 32.2127 61.3329 33.3021C61.3515 34.4103 62.17 35.124 63.4722 35.1428C64.9045 35.1616 66.3369 35.1428 67.7507 35.1428ZM10.1762 35.1428C11.6644 35.1428 13.1526 35.1616 14.6222 35.1428C15.8499 35.124 16.6498 34.3727 16.6684 33.3021C16.687 32.2502 15.8871 31.4238 14.6594 31.4238C11.683 31.3862 8.72519 31.405 5.7488 31.4238C4.50244 31.4426 3.72113 32.1939 3.72113 33.2645C3.70253 34.3727 4.52104 35.124 5.80461 35.1428C7.2742 35.1616 8.72519 35.1428 10.1762 35.1428ZM13.041 49.1737C14.0455 48.7042 14.9012 48.1407 15.8313 47.9153C16.594 47.7087 16.7056 47.3894 16.7056 46.7132C16.6684 44.3653 16.687 42.0362 16.687 39.6883C16.687 39.369 16.6684 39.0309 16.6498 38.7679C15.3849 38.8431 14.2129 38.9182 13.041 39.0121C13.041 42.4119 13.041 45.7928 13.041 49.1737ZM64.9789 49.0798C64.9789 45.7928 64.9789 42.4119 64.9789 38.9746C63.7884 38.8994 62.5978 38.8055 61.3329 38.7304C61.3329 41.5666 61.3329 44.4029 61.3515 47.2391C61.3515 47.4081 61.5003 47.6711 61.6491 47.7275C62.7281 48.197 63.8442 48.629 64.9789 49.0798ZM59.4354 89.4445C59.4354 87.9231 58.1705 86.6459 56.6823 86.6459C55.1755 86.6271 53.9105 87.8855 53.8733 89.407C53.8547 90.966 55.1383 92.2808 56.6823 92.262C58.1891 92.2432 59.4354 90.9472 59.4354 89.4445ZM21.3562 92.2432C22.863 92.2432 24.128 90.9847 24.1466 89.4633C24.1652 87.9419 22.9188 86.6459 21.412 86.6271C19.868 86.5895 18.5659 87.9043 18.5845 89.4633C18.6031 90.9847 19.868 92.2432 21.3562 92.2432Z" fill="#BE935A"/>
<path d="M38.9907 54.2453C37.9676 54.2266 37.1677 53.4377 37.1677 52.4234C37.1491 51.3716 38.0048 50.5263 39.0465 50.5451C40.051 50.5639 40.8695 51.3903 40.8695 52.3858C40.8695 53.4189 40.051 54.2453 38.9907 54.2453Z" fill="#BE935A"/>
</g>
<defs>
<clipPath id="clip0">
<rect width="78" height="96" fill="white"/>
</clipPath>
</defs>
</svg>
