<svg width="25" height="22" viewBox="0 0 25 22" fill="none" xmlns="http://www.w3.org/2000/svg">
<path d="M0 22C0 18.146 0.0258669 15.3625 0.0776267 13.6496C0.181146 9.04623 0.854041 5.6472 2.09628 3.45255C3.33851 1.20438 5.51242 0.0535273 8.61801 0L9.86025 3.61314C8.10041 3.72019 6.90995 4.41606 6.28883 5.70073C5.66771 6.9854 5.35713 8.9927 5.35713 11.7226H10.1708V22H0ZM14.8292 22C14.8292 18.146 14.8551 15.3625 14.9068 13.6496C15.0103 9.04623 15.6832 5.6472 16.9255 3.45255C18.1677 1.20438 20.3416 0.0535273 23.4472 0L24.6894 3.61314C22.9296 3.72019 21.7391 4.41606 21.118 5.70073C20.4969 6.9854 20.1863 8.9927 20.1863 11.7226H25V22H14.8292Z" fill="#BE935A"/>
</svg>
