<svg width="90" height="90" viewBox="0 0 90 90" fill="none" xmlns="http://www.w3.org/2000/svg">
<g clip-path="url(#clip0)">
<path d="M2.8875 56.25C2.02875 56.25 1.25625 55.6575 1.06125 54.7875C0.35625 51.6675 0 48.375 0 45C0 20.1862 20.1862 0 45 0C59.0775 0 72.075 6.41625 80.6513 17.61C81.2812 18.4312 81.1237 19.6087 80.3025 20.2387C79.4812 20.8687 78.3037 20.7113 77.6737 19.89C69.8138 9.63375 57.9038 3.75 45 3.75C22.2563 3.75 3.75 22.2563 3.75 45C3.75 48.1012 4.07625 51.1163 4.7175 53.9625C4.94625 54.975 4.3125 55.9762 3.3 56.205C3.16125 56.235 3.0225 56.25 2.8875 56.25Z" fill="#BE935A"/>
<path d="M45 89.9999C30.9225 89.9999 17.925 83.5837 9.34872 72.3899C8.71872 71.5687 8.87622 70.3912 9.69747 69.7612C10.5262 69.1349 11.7 69.2924 12.3262 70.1099C20.1862 80.3662 32.0962 86.2499 45 86.2499C67.7437 86.2499 86.25 67.7437 86.25 44.9999C86.25 41.8574 85.9162 38.8462 85.2525 36.0599C85.0125 35.0512 85.635 34.0387 86.6437 33.8024C87.66 33.5587 88.665 34.1849 88.9012 35.1937C89.6287 38.2649 90 41.5649 90 44.9999C90 69.8137 69.8137 89.9999 45 89.9999Z" fill="#BE935A"/>
<path d="M9.56255 90C8.53505 90 7.6988 89.1712 7.68755 88.1437L7.50005 69.3937C7.4963 68.895 7.6913 68.4113 8.0438 68.0588C8.3963 67.6988 8.8763 67.5 9.37505 67.5H28.1251C29.1601 67.5 30.0001 68.34 30.0001 69.375C30.0001 70.41 29.1601 71.25 28.1251 71.25H11.2688L11.4376 88.1063C11.4488 89.1413 10.6201 89.9888 9.5813 90C9.57755 90 9.57005 90 9.56255 90Z" fill="#BE935A"/>
<path d="M80.6251 22.5H61.8751C60.8401 22.5 60.0001 21.66 60.0001 20.625C60.0001 19.59 60.8401 18.75 61.8751 18.75H78.7501V1.875C78.7501 0.84 79.5901 0 80.6251 0C81.6601 0 82.5001 0.84 82.5001 1.875V20.625C82.5001 21.66 81.6601 22.5 80.6251 22.5Z" fill="#BE935A"/>
<path d="M31.875 63.75H28.125C25.0237 63.75 22.5 61.2262 22.5 58.125V39.375C22.5 36.2737 25.0237 33.75 28.125 33.75H31.875C34.9762 33.75 37.5 36.2737 37.5 39.375V58.125C37.5 61.2262 34.9762 63.75 31.875 63.75ZM28.125 37.5C27.09 37.5 26.25 38.34 26.25 39.375V58.125C26.25 59.16 27.09 60 28.125 60H31.875C32.91 60 33.75 59.16 33.75 58.125V39.375C33.75 38.34 32.91 37.5 31.875 37.5H28.125Z" fill="#BE935A"/>
<path d="M56.25 63.75H53.4C43.2713 63.75 37.3313 61.2225 34.695 59.715C33.795 59.2012 33.4838 58.0575 33.9975 57.1575C34.5113 56.2575 35.655 55.9387 36.555 56.46C38.4188 57.525 43.7925 60 53.4 60H56.25C58.8863 60 61.2675 58.0537 61.6725 55.5712C61.6838 55.5112 61.695 55.455 61.71 55.3987C61.935 54.3037 63.7013 43.7925 63.75 42.7537C63.75 39.8737 61.3763 37.5 58.4625 37.5H48.15C47.4563 37.5 46.8225 37.1175 46.4963 36.5062C46.17 35.895 46.2075 35.1525 46.5938 34.5787C46.5975 34.5675 48.0375 32.31 48.0375 28.6125C48.0375 24.87 46.5338 23.5125 45.525 23.5125C45.1725 23.5612 44.775 24.0937 44.775 26.8875C44.775 32.6962 38.9925 36.9375 36.5063 38.49C35.6288 39.0412 34.47 38.7712 33.9225 37.8937C33.375 37.0162 33.6413 35.8575 34.5188 35.31C36.045 34.3575 41.025 30.93 41.025 26.8875C41.025 24.5737 41.025 19.7625 45.525 19.7625C48.54 19.7625 51.7875 22.53 51.7875 28.6125C51.7875 30.6862 51.4313 32.4262 51.0113 33.75H58.4625C63.4463 33.75 67.5 37.8037 67.5 42.7875C67.5 42.9075 67.035 52.3162 65.2125 56.1487L65.3775 56.175C64.6725 60.495 60.75 63.75 56.25 63.75Z" fill="#BE935A"/>
</g>
<defs>
<clipPath id="clip0">
<rect width="90" height="90" fill="white"/>
</clipPath>
</defs>
</svg>
