<svg width="171" height="100" viewBox="0 0 171 100" fill="none" xmlns="http://www.w3.org/2000/svg">
    <g clip-path="url(#clip0)">
        <path d="M2.79381 0H0V100H2.79381V0Z" fill="#BE935A" />
        <path fill-rule="evenodd" clip-rule="evenodd" d="M18.8582 74.126H15.366V96.5036V100H18.8582H30.7319V96.5036H18.8582V74.126Z" fill="white" />
        <path fill-rule="evenodd" clip-rule="evenodd" d="M97.7834 74.126H89.402V77.6225H97.7834V100H101.276V77.6225H109.657V74.126H101.276H97.7834Z" fill="white" />
        <path fill-rule="evenodd" clip-rule="evenodd" d="M131.309 34.9651H122.928V38.4616H131.309V60.8392H134.801V38.4616H143.183V34.9651H134.801H131.309Z" fill="#BE935A" />
        <path fill-rule="evenodd" clip-rule="evenodd" d="M68.4484 74.126H71.9407H83.8144V77.6225H71.9407V84.6155H81.0206V88.112H71.9407V100H68.4484V88.112V84.6155V77.6225V74.126Z" fill="white" />
        <path fill-rule="evenodd" clip-rule="evenodd" d="M44.7009 34.9651H44.0025V60.8392H44.7009H47.4947H60.0669V57.3427H47.4947V48.9511H58.67V45.4546H47.4947V38.4616H60.0669V34.9651H47.4947H44.7009Z" fill="#BE935A" />
        <path fill-rule="evenodd" clip-rule="evenodd" d="M29.335 2.7972V0H22.3505H19.5567H12.5722V2.7972H19.5567V21.6783H22.3505V2.7972H29.335Z" fill="white" />
        <path fill-rule="evenodd" clip-rule="evenodd" d="M34.9227 0H37.7165V9.09091H48.8917V0H51.6855V9.09091V11.8881V21.6783H48.8917V11.8881H37.7165V21.6783H34.9227V11.8881V9.09091V0Z" fill="white" />
        <path fill-rule="evenodd" clip-rule="evenodd" d="M62.1623 0H60.067V21.6783H62.1623H62.8608H74.036V18.8811H62.8608V11.8881H72.6391V9.09091H62.8608V2.7972H74.036V0H62.8608H62.1623Z" fill="white" />
        <path fill-rule="evenodd" clip-rule="evenodd" d="M47.8441 96.5036C52.4856 96.5036 56.5747 92.4623 56.5747 87.063C56.5747 81.6637 52.4856 77.6225 47.8441 77.6225C43.2026 77.6225 39.1134 81.6637 39.1134 87.063C39.1134 92.4623 43.2026 96.5036 47.8441 96.5036ZM47.8441 100C54.5946 100 60.067 94.2078 60.067 87.063C60.067 79.9183 54.5946 74.126 47.8441 74.126C41.0935 74.126 35.6211 79.9183 35.6211 87.063C35.6211 94.2078 41.0935 100 47.8441 100Z" fill="white" />
        <path fill-rule="evenodd" clip-rule="evenodd" d="M16.0645 34.9651H18.8583H19.5567H26.5413V36.7133C26.5413 34.9651 26.5422 34.9651 26.5432 34.9651H26.5452H26.5495L26.5596 34.9652L26.5855 34.9655C26.6051 34.9659 26.6296 34.9664 26.6585 34.9675C26.7164 34.9696 26.7926 34.9734 26.8846 34.9804C27.068 34.9945 27.3176 35.0216 27.6121 35.0742C28.1935 35.1782 28.9925 35.3891 29.8105 35.8279C30.6375 36.2715 31.4998 36.9576 32.1491 38.0024C32.8017 39.0524 33.1766 40.3647 33.1766 41.9581C33.1766 43.5515 32.8017 44.8638 32.1491 45.9138C31.9785 46.1884 31.7932 46.4382 31.5976 46.6652C33.3211 47.754 34.9227 49.7622 34.9227 53.1469C34.9227 56.6242 33.2321 58.6489 31.4557 59.7159C30.611 60.2235 29.7811 60.498 29.1713 60.6472C28.8632 60.7226 28.6019 60.7682 28.4102 60.7957C28.3141 60.8094 28.2346 60.8187 28.1746 60.8249C28.1445 60.828 28.1193 60.8303 28.0992 60.8319L28.0728 60.834L28.0626 60.8348L28.0582 60.8351L28.0562 60.8352C28.0552 60.8353 28.0543 60.8354 27.9382 59.091L28.0543 60.8354C28.0156 60.838 27.977 60.8392 27.9382 60.8392H19.5567H18.8583H16.0645V34.9651ZM19.5567 57.3427H27.853C27.8699 57.3407 27.8911 57.338 27.9163 57.3343C28.011 57.3208 28.1591 57.2954 28.342 57.2507C28.7145 57.1595 29.1942 56.9969 29.659 56.7177C30.5019 56.2114 31.4305 55.264 31.4305 53.1469C31.4305 51.0298 30.5019 50.0824 29.659 49.5761C29.1942 49.2969 28.7145 49.1343 28.342 49.0431C28.1591 48.9984 28.011 48.9731 27.9163 48.9595C27.8911 48.9559 27.8699 48.9531 27.853 48.9511H26.5432H26.5413H19.5567V57.3427ZM19.5567 45.4546H26.5288L26.5339 45.4545C26.5476 45.454 26.5764 45.4526 26.6181 45.4494C26.7021 45.443 26.8344 45.4291 26.9983 45.3998C27.3336 45.3399 27.7569 45.2231 28.1613 45.0062C28.5565 44.7943 28.9165 44.497 29.1839 44.0666C29.4481 43.6416 29.6843 42.987 29.6843 41.9581C29.6843 40.9291 29.4481 40.2746 29.1839 39.8496C28.9165 39.4192 28.5565 39.1219 28.1613 38.91C27.7569 38.6931 27.3336 38.5763 26.9983 38.5163C26.8344 38.487 26.7021 38.4732 26.6181 38.4668C26.5764 38.4635 26.5476 38.4622 26.5339 38.4617L26.5288 38.4616H19.5567V45.4546Z" fill="#BE935A" />
        <path fill-rule="evenodd" clip-rule="evenodd" d="M76.4191 34.9651L66.1484 60.8392H69.9061L72.6824 53.8462H84.4695L87.2452 60.8392H91.0035L80.7321 34.9651H76.4191ZM83.359 51.049L78.576 38.9993L73.7929 51.049H83.359Z" fill="#BE935A" />
        <path fill-rule="evenodd" clip-rule="evenodd" d="M148.662 35.1508C148.626 35.0901 148.594 35.028 148.567 34.9651H152.602L159.538 46.7963L165.96 34.9651H169.927C169.908 35.0108 169.885 35.056 169.862 35.1006L161.343 50.7941V60.8392H157.85V50.8248L148.662 35.1508Z" fill="#BE935A" />
        <path fill-rule="evenodd" clip-rule="evenodd" d="M97.085 34.9651H100.577V51.7328C100.577 51.762 100.577 51.7914 100.576 51.8209C100.576 51.8241 100.575 51.8331 100.575 51.8475C100.575 51.8776 100.575 51.9311 100.578 52.0044C100.583 52.1517 100.597 52.3752 100.636 52.6484C100.716 53.2029 100.889 53.9156 101.251 54.6084C101.607 55.2884 102.142 55.9467 102.971 56.4446C103.801 56.9432 105.028 57.3428 106.863 57.3428C108.699 57.3428 109.926 56.9432 110.756 56.4446C111.585 55.9467 112.12 55.2884 112.475 54.6084C112.838 53.9157 113.011 53.2029 113.091 52.6484C113.13 52.3752 113.144 52.1517 113.149 52.0044C113.151 51.9311 113.151 51.8776 113.151 51.8475C113.151 51.8331 113.151 51.8241 113.151 51.8208C113.149 51.7923 113.149 51.7639 113.149 51.7356V34.9651H116.642V51.7183V51.7184C116.642 51.7433 116.643 51.7754 116.644 51.8142C116.644 51.8915 116.644 51.9959 116.64 52.1233C116.63 52.3775 116.607 52.7277 116.548 53.1428C116.431 53.9651 116.167 55.088 115.57 56.2309C114.965 57.3866 114.015 58.564 112.553 59.4428C111.091 60.321 109.219 60.8393 106.863 60.8393C104.508 60.8393 102.636 60.321 101.174 59.4428C99.7112 58.564 98.762 57.3866 98.1571 56.2309C97.5592 55.088 97.2966 53.9651 97.1793 53.1428C97.1199 52.7277 97.0962 52.3775 97.0871 52.1233C97.0829 51.9959 97.0822 51.8915 97.0829 51.8142C97.0836 51.7757 97.0843 51.7439 97.085 51.719V34.9651Z" fill="#BE935A" />
    </g>
    <defs>
        <clipPath id="clip0">
            <rect width="170.423" height="100" fill="white" />
        </clipPath>
    </defs>
</svg>